<svg width="21" height="21" fill="none" xmlns="http://www.w3.org/2000/svg"><path d="M4.479.004L2.859 1.55A1184.563 1184.563 0 00.174 4.217l.908.885.697.668 4.862 4.59-.01.01 1.459 1.37 1.2 1.14 1.45 1.38.01-.01 2.61 2.48.01.01c.1.6.35 1.17.71 1.59.58.65 1.49.86 3.16 1.23.59.13 1.08.22 1.42.27l1.37.23-.22-1.37c-.05-.29-.12-.72-.23-1.24-.37-1.78-.58-2.77-1.26-3.36-.37-.32-.86-.55-1.38-.67l-.01-.01-1.65-1.78-.92-.99L13 9.17l-2.48-2.69-.01.01-4.53-4.87c-.5-.54-1-1.077-1.501-1.616zm11.945.611l-.713.674L11.93 5.07l3.85 4.15 3.93-3.93.667-.714-.666-.695-2.592-2.592-.695-.674zM12 11.02l.95 1.03 1.54 1.66-.69.68-1.64-1.55-1-.95.84-.87zm-6.78.76L3 14s1.01.01 1.5.5c.47.47.48 1.4.48 1.48 0 0 1.02.02 1.52.52S7 18 7 18l2.33-2.33-4.11-3.89zm10.96 3.55c.31 0 .64.11.82.26.17.17.38 1.09.56 1.99-.86-.19-1.81-.41-1.97-.57-.28-.32-.41-1.1-.05-1.46.16-.16.39-.22.64-.22zM1.67 16L1 20l4-.67L1.67 16z" fill="#0C4DDE"/></svg>