<svg width="24" height="24" viewBox="0 0 24 24" fill="none" xmlns="http://www.w3.org/2000/svg">
<path d="M2 3C1.448 3 1 3.448 1 4V12C1 12.552 1.448 13 2 13H18C18.552 13 19 12.552 19 12V4C19 3.448 18.552 3 18 3H2ZM3.91211 5H16.0879C16.1625 5.21031 16.2831 5.40132 16.4409 5.55911C16.5987 5.7169 16.7897 5.83749 17 5.91211V10.0879C16.7897 10.1625 16.5987 10.2831 16.4409 10.4409C16.2831 10.5987 16.1625 10.7897 16.0879 11H3.91211C3.83749 10.7897 3.7169 10.5987 3.55911 10.4409C3.40132 10.2831 3.21031 10.1625 3 10.0879V5.91211C3.21031 5.83749 3.40132 5.7169 3.55911 5.55911C3.7169 5.40132 3.83749 5.21031 3.91211 5ZM10 6C9.46957 6 8.96086 6.21071 8.58579 6.58579C8.21071 6.96086 8 7.46957 8 8C8 8.53043 8.21071 9.03914 8.58579 9.41421C8.96086 9.78929 9.46957 10 10 10C10.5304 10 11.0391 9.78929 11.4142 9.41421C11.7893 9.03914 12 8.53043 12 8C12 7.46957 11.7893 6.96086 11.4142 6.58579C11.0391 6.21071 10.5304 6 10 6ZM21 11V18.0879C20.7897 18.1625 20.5987 18.2831 20.4409 18.4409C20.2831 18.5987 20.1625 18.7897 20.0879 19H7.91211C7.83749 18.7897 7.7169 18.5987 7.55911 18.4409C7.40132 18.2831 7.21031 18.1625 7 18.0879V15H5V20C5 20.552 5.448 21 6 21H22C22.552 21 23 20.552 23 20V12C23 11.448 22.552 11 22 11H21ZM12.2773 15C12.1063 15.295 12 15.634 12 16C12 17.105 12.895 18 14 18C15.105 18 16 17.105 16 16C16 15.634 15.8937 15.295 15.7227 15H12.2773Z" fill="#0C4DDE"/>
</svg>
