<svg width="18" height="20" viewBox="0 0 18 20" fill="none" xmlns="http://www.w3.org/2000/svg">
<path d="M3 0C2.46957 0 1.96086 0.210714 1.58579 0.585786C1.21071 0.960859 1 1.46957 1 2C1 2.53043 1.21071 3.03914 1.58579 3.41421C1.96086 3.78929 2.46957 4 3 4C3.53043 4 4.03914 3.78929 4.41421 3.41421C4.78929 3.03914 5 2.53043 5 2C5 1.46957 4.78929 0.960859 4.41421 0.585786C4.03914 0.210714 3.53043 0 3 0ZM8 1C7.86749 0.998126 7.73593 1.02261 7.61296 1.07202C7.48999 1.12143 7.37807 1.1948 7.2837 1.28784C7.18933 1.38088 7.11439 1.49176 7.06324 1.61401C7.0121 1.73627 6.98576 1.86747 6.98576 2C6.98576 2.13253 7.0121 2.26373 7.06324 2.38599C7.11439 2.50824 7.18933 2.61912 7.2837 2.71216C7.37807 2.8052 7.48999 2.87857 7.61296 2.92798C7.73593 2.97739 7.86749 3.00187 8 3H16V12H9C8.86749 11.9981 8.73593 12.0226 8.61296 12.072C8.48999 12.1214 8.37807 12.1948 8.2837 12.2878C8.18933 12.3809 8.11439 12.4918 8.06324 12.614C8.0121 12.7363 7.98576 12.8675 7.98576 13C7.98576 13.1325 8.0121 13.2637 8.06324 13.386C8.11439 13.5082 8.18933 13.6191 8.2837 13.7122C8.37807 13.8052 8.48999 13.8786 8.61296 13.928C8.73593 13.9774 8.86749 14.0019 9 14H10.3398L12.6523 19.3945C12.8093 19.7625 13.1723 20 13.5723 20C14.2903 20 14.7732 19.2655 14.4902 18.6055L12.5156 14H16.5C17.3171 14 18 13.3171 18 12.5V2.5C18 1.68294 17.3171 1 16.5 1H8ZM2 5C0.895 5 0 5.895 0 7V14V19C0 19.552 0.448 20 1 20C1.552 20 2 19.552 2 19V14H4V19C4 19.552 4.448 20 5 20C5.552 20 6 19.552 6 19V13V7H11C11.552 7 12 6.552 12 6C12 5.448 11.552 5 11 5H6H2Z" fill="#0C4DDE"/>
</svg>
